<svg width="144" height="13" viewBox="0 0 144 13" fill="none" xmlns="http://www.w3.org/2000/svg">
<g id="EZY TRANSIT">
<path d="M4.69299 9.008C8.74633 8.98667 11.685 8.928 13.509 8.832C13.4343 9.26933 13.3863 9.72267 13.365 10.192C13.3543 10.6507 13.349 11.232 13.349 11.936H0.916992C1.00233 9.86667 1.04499 7.93067 1.04499 6.128C1.04499 4.32533 1.00233 2.38933 0.916992 0.320001H13.349V3.216H4.69299V4.752C5.20499 4.76267 5.96233 4.768 6.96499 4.768C8.66099 4.768 10.4157 4.736 12.229 4.672V7.424C10.4157 7.36 8.66099 7.328 6.96499 7.328C5.96233 7.328 5.20499 7.33333 4.69299 7.344V9.008Z" fill="#09BD62"/>
<path d="M20.104 8.784C20.712 8.77333 22.28 8.73067 24.808 8.656C25.128 8.64533 25.5013 8.62933 25.928 8.608C26.3547 8.58667 26.8293 8.57067 27.352 8.56C27.2773 9.06133 27.2293 9.56267 27.208 10.064C27.1973 10.5653 27.192 11.1893 27.192 11.936H14.92V8.368C15.5067 8.03733 16.1467 7.632 16.84 7.152C17.5333 6.66133 18.4293 6.02133 19.528 5.232C20.552 4.48533 21.2933 3.952 21.752 3.632C20.9093 3.64267 19.2187 3.70133 16.68 3.808C15.8053 3.85067 15.2187 3.87733 14.92 3.888C14.92 3.09867 14.9093 2.43733 14.888 1.904C14.8773 1.37067 14.8453 0.842667 14.792 0.320001H27.192V3.904C26.6267 4.27733 25.5813 5.00267 24.056 6.08C22.3493 7.296 21.032 8.19733 20.104 8.784Z" fill="#09BD62"/>
<path d="M42.2351 0.320001L41.9311 0.784C40.7898 2.55467 39.8085 4.12267 38.9871 5.488C38.1765 6.84267 37.4991 8.09067 36.9551 9.232V11.936H32.7791V8.96C32.3845 8.16 31.9205 7.33867 31.3871 6.496C30.8538 5.64267 30.0965 4.47467 29.1151 2.992C28.3471 1.86133 27.7605 0.970667 27.3551 0.320001H31.8351C32.1551 0.970667 32.6778 1.936 33.4031 3.216C34.1285 4.51733 34.6245 5.43467 34.8911 5.968C35.2645 5.18933 35.7658 4.23467 36.3951 3.104C37.1311 1.78133 37.6271 0.853333 37.8831 0.320001H42.2351Z" fill="#09BD62"/>
<path d="M60.036 3.68C58.3613 3.62667 56.7347 3.59467 55.156 3.584V11.936H51.156V3.584C49.5667 3.59467 47.9453 3.62667 46.292 3.68V0.320001H60.036V3.68Z" fill="#3B3B3B"/>
<path d="M74.1712 4.192C74.1712 5.12 73.9419 5.904 73.4832 6.544C73.0352 7.184 72.2619 7.648 71.1632 7.936C71.2912 8.10667 71.3819 8.24 71.4352 8.336L74.0272 11.936H69.6752C69.2059 11.0613 68.4646 9.824 67.4512 8.224H65.0992V11.936H61.3232C61.4086 9.86667 61.4512 7.93067 61.4512 6.128C61.4512 4.32533 61.4086 2.38933 61.3232 0.320001H65.0992V0.336H68.3792C70.5339 0.336 72.0379 0.682667 72.8912 1.376C73.7446 2.06933 74.1712 3.008 74.1712 4.192ZM65.0992 3.408V5.232H67.2592C68.1659 5.232 68.8486 5.20533 69.3072 5.152C69.7766 5.088 70.1019 4.992 70.2832 4.864C70.4646 4.736 70.5552 4.54933 70.5552 4.304C70.5552 4.06933 70.4699 3.888 70.2992 3.76C70.1286 3.632 69.8086 3.54133 69.3392 3.488C68.8699 3.43467 68.1766 3.408 67.2592 3.408H65.0992Z" fill="#3B3B3B"/>
<path d="M84.5911 11.936C84.3885 11.328 84.1164 10.5653 83.7751 9.648H78.6711L77.8711 11.936H73.8551L78.3351 0.320001H84.2231L88.7351 11.936H84.5911ZM82.8631 7.152C82.4578 6.032 82.0418 4.912 81.6151 3.792L81.2311 2.752C80.8578 3.72267 80.3084 5.18933 79.5831 7.152H82.8631Z" fill="#3B3B3B"/>
<path d="M102.7 0.336C102.626 2.13867 102.588 4.06933 102.588 6.128C102.588 8.19733 102.626 10.1333 102.7 11.936H96.9724L93.1004 3.2L93.3884 11.936H89.2764C89.3617 9.86667 89.4044 7.93067 89.4044 6.128C89.4044 4.336 89.3617 2.40533 89.2764 0.336H95.1644L99.0524 9.312L98.7804 0.336H102.7Z" fill="#3B3B3B"/>
<path d="M103.979 10.56C104.342 10.016 104.641 9.50933 104.875 9.04C105.121 8.57067 105.355 8.02667 105.579 7.408C106.337 7.84533 107.217 8.18667 108.219 8.432C109.222 8.67733 110.155 8.8 111.019 8.8C111.905 8.8 112.529 8.72533 112.891 8.576C113.254 8.416 113.435 8.24533 113.435 8.064C113.435 7.41333 112.443 7.088 110.459 7.088C108.283 7.088 106.705 6.864 105.723 6.416C104.742 5.95733 104.251 5.22133 104.251 4.208C104.251 2.768 104.849 1.70667 106.043 1.024C107.238 0.341333 108.79 0 110.699 0C111.809 0 112.945 0.144 114.107 0.432C115.281 0.709334 116.337 1.09333 117.275 1.584C116.966 2.288 116.641 3.14667 116.299 4.16C116.235 4.37333 116.182 4.53333 116.139 4.64C115.595 4.20267 114.774 3.84 113.675 3.552C112.577 3.25333 111.606 3.104 110.763 3.104C109.75 3.104 109.067 3.17333 108.715 3.312C108.363 3.44 108.187 3.632 108.187 3.888C108.187 4.144 108.427 4.352 108.907 4.512C109.398 4.66133 110.102 4.736 111.019 4.736C113.281 4.736 114.923 4.99733 115.947 5.52C116.971 6.032 117.483 6.82133 117.483 7.888C117.483 9.38133 116.939 10.4587 115.851 11.12C114.763 11.7707 113.115 12.096 110.907 12.096C109.723 12.096 108.518 11.968 107.291 11.712C106.065 11.4453 104.961 11.0613 103.979 10.56Z" fill="#3B3B3B"/>
<path d="M128.057 3.504C126.787 3.44 125.849 3.40267 125.241 3.392V8.864C125.859 8.85333 126.798 8.816 128.057 8.752V11.936H118.761V8.752C119.987 8.816 120.921 8.85333 121.561 8.864V3.392C120.921 3.40267 119.987 3.44 118.761 3.504V0.320001H128.057V3.504Z" fill="#3B3B3B"/>
<path d="M143.083 3.68C141.408 3.62667 139.782 3.59467 138.203 3.584V11.936H134.203V3.584C132.614 3.59467 130.992 3.62667 129.339 3.68V0.320001H143.083V3.68Z" fill="#3B3B3B"/>
</g>
</svg>
